<svg xmlns="http://www.w3.org/2000/svg" xmlns:xlink="http://www.w3.org/1999/xlink" viewBox="0 0 107 31" fill="#fff" fill-rule="evenodd" stroke="#000" stroke-linecap="round" stroke-linejoin="round"><use xlink:href="#A" x=".5" y=".5"/><symbol id="A" overflow="visible"><path d="M54.763 0c-5.86.1-9.194 3.54-10.942 6.9-1.532 2.925-1.855 5.447-1.936 6.135H.161v1.156h42.207a.58.58 0 0 0 .565-.53c.025-.295.296-3.1 1.9-6.226 1.506-2.9 4.14-5.737 8.9-6.18-2.93 5.845.296 12.62.296 12.62a.58.58 0 0 0 .511.333h51.268v-1.156H54.951c-.376-.882-2.877-7.15.296-12.154a.58.58 0 0 0-.484-.887zM3.108 28.955L0 15.972h1.583l1.777 8.52a39.35 39.35 0 0 1 .495 2.662l.524-2.393 2.223-8.788h1.863l1.67 6.584c.422 1.64.726 3.172.9 4.597.148-.833.34-1.774.58-2.823l1.83-8.358h1.563l-3.2 12.982h-1.5l-2.46-9.888-.366-1.524a41.15 41.15 0 0 1-.344 1.524l-2.463 9.888zm13.6 0V15.972h1.55v12.983zm4.3 0V15.972h5.162c1.048 0 1.855.118 2.42.352.5.234.968.645 1.3 1.237.296.6.484 1.242.484 1.957 0 .922-.296 1.694-.807 2.34-.538.618-1.37 1.022-2.473 1.2.403.215.7.43.914.645a7.35 7.35 0 0 1 1.264 1.72l2.043 3.522h-1.957l-1.55-2.69c-.43-.78-.807-1.37-1.13-1.8-.27-.403-.538-.7-.78-.86-.215-.16-.484-.27-.7-.35a5.92 5.92 0 0 0-.86-.054h-1.8v5.764zm1.532-7.232h3.334c.726 0 1.264-.08 1.667-.27.403-.16.7-.403.914-.77a2.48 2.48 0 0 0 .296-1.167c0-.613-.188-1.118-.6-1.514s-1.048-.594-1.9-.594h-3.7zm10.268 7.232V15.972h8.442v1.535h-6.892v3.973h6.425v1.532h-6.425v4.4h7.15v1.543zm10.2-4.22l2.285-.242c.16.86.43 1.48.86 1.882s.995.618 1.694.618c.78 0 1.317-.188 1.747-.538a1.69 1.69 0 0 0 .538-1.264c0-.296-.054-.565-.215-.78-.188-.215-.457-.403-.86-.565-.27-.108-.914-.296-1.882-.565-1.264-.35-2.15-.78-2.662-1.3-.745-.726-1.105-1.586-1.105-2.626a3.51 3.51 0 0 1 .511-1.855c.323-.575.807-1.014 1.452-1.315s1.398-.454 2.285-.454c1.452 0 2.58.358 3.334 1.073.726.715 1.102 1.67 1.156 2.863l-2.366.116c-.108-.667-.296-1.148-.645-1.438-.323-.296-.833-.44-1.506-.44s-1.2.156-1.586.468c-.27.202-.376.47-.376.8a1.01 1.01 0 0 0 .349.788c.296.28 1.022.567 2.15.868 1.156.3 2 .624 2.554.946a3.57 3.57 0 0 1 1.29 1.317c.323.565.484 1.237.484 2.07 0 .726-.215 1.425-.565 2.097a3.41 3.41 0 0 1-1.586 1.425c-.7.35-1.532.484-2.554.484-1.48 0-2.608-.376-3.387-1.13s-1.254-1.853-1.414-3.303zm11.506 4.22V15.972h2.366v5.105h4.597v-5.105h2.366v12.983h-2.385v-5.673h-4.597v5.673zm22.314 0h-2.58l-1.022-2.93h-4.65l-.968 2.93h-2.5l4.543-12.982h2.473zm-4.355-5.135l-1.613-4.815-1.586 4.815zm5.592 5.135V15.972h4.943c1.264 0 2.178.118 2.742.352.538.234 1.022.648 1.344 1.245a4.25 4.25 0 0 1 .511 2.049c0 .973-.27 1.782-.78 2.428-.5.618-1.3 1.022-2.312 1.183.5.35.94.7 1.264 1.102.35.403.78 1.102 1.344 2.097l1.437 2.527h-2.796l-1.72-2.823c-.618-.995-1.022-1.64-1.237-1.9-.242-.242-.457-.43-.726-.538-.242-.08-.645-.134-1.183-.134h-.484v5.395zm2.366-7.474h1.747c1.156 0 1.828-.054 2.124-.16a1.13 1.13 0 0 0 .645-.559c.188-.26.27-.583.27-.976 0-.436-.108-.8-.35-1.057-.188-.27-.484-.44-.86-.5-.188-.03-.753-.046-1.72-.046h-1.855zm9.463 7.474V15.972h2.34v5.777l4.785-5.777h3.172l-4.4 5.078 4.65 7.904h-3.065l-3.226-6.076-1.9 2.15v3.927z" stroke="none" fill="#000" fill-rule="nonzero"/></symbol></svg>